<svg width="17" height="16" viewBox="0 0 17 16" fill="none" xmlns="http://www.w3.org/2000/svg">
    <path d="M8 5.444a1 1 0 1 0 0-2v2zm0 5.112a1 1 0 1 0 0 2v-2zm0-7.112a1 1 0 0 0 0 2v-2zM9.555 5.99a1 1 0 1 0 1.51-1.311l-1.51 1.31zM7 4.444a1 1 0 1 0 2 0H7zm2-.888a1 1 0 1 0-2 0h2zm0 .888a1 1 0 0 0-2 0h2zm-2 7.112a1 1 0 0 0 2 0H7zm2 0a1 1 0 1 0-2 0h2zm-2 .888a1 1 0 1 0 2 0H7zm1 .112a1 1 0 0 0 0-2v2zM6.445 10.01a1 1 0 0 0-1.51 1.311l1.51-1.31zM8 3.444c-.906 0-1.772.244-2.44.69-.662.44-1.227 1.159-1.227 2.088h2c0-.052.032-.222.336-.425.297-.198.764-.353 1.331-.353v-2zM4.333 6.222c0 .93.565 1.648 1.227 2.09C6.228 8.756 7.094 9 8 9V7c-.567 0-1.034-.155-1.33-.353-.305-.202-.337-.372-.337-.425h-2zM8 9c.567 0 1.034.155 1.33.353.305.202.337.372.337.425h2c0-.93-.565-1.648-1.227-2.09C9.772 7.244 8.906 7 8 7v2zm1.667.778c0 .052-.032.222-.336.425-.297.198-.764.353-1.331.353v2c.906 0 1.772-.243 2.44-.69.662-.44 1.227-1.159 1.227-2.088h-2zM8 5.444c.78 0 1.332.288 1.555.545l1.51-1.311c-.7-.806-1.871-1.234-3.065-1.234v2zm1-1v-.888H7v.888h2zm-2 0v7.112h2V4.444H7zm0 7.112v.888h2v-.888H7zm1-1c-.78 0-1.332-.288-1.555-.545l-1.51 1.311c.7.806 1.871 1.234 3.065 1.234v-2zM15 8a7 7 0 0 1-7 7v2a9 9 0 0 0 9-9h-2zm-7 7a7 7 0 0 1-7-7h-2a9 9 0 0 0 9 9v-2zM1 8a7 7 0 0 1 7-7v-2a9 9 0 0 0-9 9h2zm7-7a7 7 0 0 1 7 7h2a9 9 0 0 0-9-9v2z" fill="#F5B014"/>
</svg>
